/vscmnt/brussel_pixiu_data/_data_brussel/112/vsc11236/PredSimResults/SUBJ06mtu3D/worker1.mot
version=1
nRows=10
nColumns=50
inDegrees=yes
endheader
                time	         pelvis_tilt	         pelvis_list	     pelvis_rotation	           pelvis_tx	           pelvis_ty	           pelvis_tz	       hip_flexion_r	     hip_adduction_r	      hip_rotation_r	        knee_angle_r	       ankle_angle_r	         mtp_angle_r	       hip_flexion_l	     hip_adduction_l	      hip_rotation_l	        knee_angle_l	       ankle_angle_l	         mtp_angle_l	    lumbar_extension	      lumbar_bending	     lumbar_rotation	 ercspn_r/activation	 intobl_r/activation	 extobl_r/activation	    abd_r/activation	    add_r/activation	hamstrings_r/activation	bifemsh_r/activation	glut_max_r/activation	iliopsoas_r/activation	rect_fem_r/activation	  vasti_r/activation	gastroc_r/activation	 soleus_r/activation	tib_ant_r/activation	 ercspn_l/activation	 intobl_l/activation	 extobl_l/activation	    abd_l/activation	    add_l/activation	hamstrings_l/activation	bifemsh_l/activation	glut_max_l/activation	iliopsoas_l/activation	rect_fem_l/activation	  vasti_l/activation	gastroc_l/activation	 soleus_l/activation	tib_ant_l/activation	
          0.00000000	         -5.94244495	          0.91949289	          0.70186290	          0.00000000	          0.92865203	         -0.00662073	         33.51967148	         -2.83646345	         -3.62802109	        -11.46322186	         -0.55572005	          0.23399803	        -10.60137698	         -0.30365130	        -10.89499914	        -12.04526268	          6.37294771	         35.58533294	         -6.87919537	         -1.75968998	         -7.90122348	          0.23974449	          0.11290649	          0.01000027	          0.01000000	          0.46514418	          0.13588150	          0.11385573	          0.15361169	          0.09104654	          0.01452118	          0.01000005	          0.01000022	          0.01000005	          0.54243866	          0.15642189	          0.01000005	          0.01000005	          0.07780582	          0.01000197	          0.01000286	          0.16198337	          0.02108655	          0.59299528	          0.01834269	          0.01215480	          0.21520625	          0.34695341	          0.01749853	
          0.01230223	         -6.01211860	          1.02348157	          0.75766266	          0.01717304	          0.92705430	         -0.00492366	         33.40268381	         -2.78954899	         -3.58475973	        -12.98645293	         -0.83250671	          0.20812843	        -10.84225116	         -0.46747005	        -11.21733949	        -13.30705199	          5.19928960	         37.50079596	         -6.52853164	         -1.51139107	         -8.34246309	          0.19895198	          0.09369556	          0.01000014	          0.01000002	          0.38600004	          0.13442330	          0.09448328	          0.17922523	          0.07555497	          0.01205042	          0.01000020	          0.01452159	          0.01452118	          0.57705489	          0.15175703	          0.01000003	          0.01000008	          0.06456715	          0.01000704	          0.01513432	          0.13442213	          0.01749869	          0.58229421	          0.01522176	          0.01204921	          0.17858894	          0.32046333	          0.01452115	
          0.02460446	         -6.05952025	          1.06269035	          0.80865052	          0.03467730	          0.92566856	         -0.00314351	         33.10021049	         -2.75635998	         -3.52318096	        -14.32548886	         -1.12946640	          0.20108738	        -10.87685691	         -0.76336859	        -11.51946149	        -15.00641328	          3.91084500	         39.42423186	         -6.16191439	         -1.19005331	         -8.72556598	          0.17521550	          0.07775330	          0.01000013	          0.04204940	          0.32034497	          0.12668554	          0.07840706	          0.17829625	          0.06269929	          0.01000010	          0.02667715	          0.01205076	          0.01205041	          0.65336474	          0.13871975	          0.01000002	          0.01000006	          0.05358105	          0.01000053	          0.01256064	          0.11155092	          0.01452130	          0.57714808	          0.01263187	          0.01000005	          0.14820203	          0.28063131	          0.01205038	
          0.03690669	         -6.08645147	          1.06297394	          0.84065473	          0.05218994	          0.92459295	         -0.00124412	         32.75352986	         -2.71140384	         -3.62314326	        -15.58188119	         -1.55561652	          0.17121247	        -10.61094509	         -1.17817820	        -11.80889539	        -17.26606393	          2.46462757	         41.31335644	         -5.82165255	         -0.83166121	         -9.03914897	          0.17043879	          0.06452358	          0.01000014	          0.08845304	          0.33182136	          0.12390295	          0.06506622	          0.20186665	          0.05203100	          0.01000006	          0.07783185	          0.01000037	          0.01000005	          0.72083646	          0.17227515	          0.01000002	          0.01000006	          0.04446423	          0.01000080	          0.01042915	          0.09257127	          0.01205051	          0.52410058	          0.01048268	          0.01000005	          0.12298545	          0.23288190	          0.01000002	
          0.04920892	         -6.09508588	          1.00645141	          0.86001185	          0.06948552	          0.92400299	          0.00074722	         32.40165942	         -2.61921569	         -3.79326249	        -16.89886785	         -1.57768565	          0.13020790	         -9.99075009	         -1.74031729	        -12.07646396	        -20.12852972	          0.79844578	         43.03445610	         -5.52972454	         -0.41858305	         -9.28553617	          0.16316146	          0.05354490	          0.01000015	          0.13943744	          0.29671496	          0.11795191	          0.05399533	          0.21670452	          0.04317793	          0.01000005	          0.14660791	          0.01000004	          0.01000001	          0.71263792	          0.22398478	          0.01000004	          0.01000006	          0.03689864	          0.01000126	          0.04429502	          0.09289731	          0.01000014	          0.43494542	          0.01000016	          0.01000001	          0.10205948	          0.19325703	          0.01000002	
          0.06151115	         -6.08927276	          0.88671437	          0.87430632	          0.08638360	          0.92412796	          0.00279460	         31.99669384	         -2.44707673	         -3.91891962	        -18.22457233	         -0.88682487	          0.20310579	         -9.00276442	         -2.45606565	        -12.32543324	        -23.55048527	         -1.12831630	         44.28034032	         -5.29734603	          0.05124762	         -9.47212714	          0.14170740	          0.04443424	          0.01000014	          0.19059931	          0.25152325	          0.10869251	          0.04480813	          0.18999201	          0.03583121	          0.01000007	          0.23507060	          0.01000034	          0.01000013	          0.60383889	          0.27078749	          0.01000006	          0.01000008	          0.03062034	          0.01000541	          0.07539901	          0.09853022	          0.01000002	          0.36093947	          0.01000012	          0.01000001	          0.08469406	          0.16037434	          0.01000004	
          0.07381338	         -6.07510376	          0.72416526	          0.88244635	          0.10274395	          0.92520033	          0.00485731	         31.42212970	         -2.20096276	         -3.97924357	        -19.29263779	          0.31770050	          0.48906946	         -7.64891036	         -3.30342136	        -12.57517515	        -27.49019057	         -3.18450072	         44.41675753	         -5.13048837	          0.55023059	         -9.60187452	          0.13296613	          0.03687376	          0.01000014	          0.21720206	          0.21283616	          0.10447393	          0.03718416	          0.15766495	          0.02973453	          0.01000005	          0.25888065	          0.01000014	          0.01000003	          0.50109633	          0.28281076	          0.01000006	          0.01000010	          0.02541029	          0.01000255	          0.06257850	          0.08980227	          0.01000001	          0.29952561	          0.01000013	          0.01000000	          0.07028337	          0.13308664	          0.01000001	
          0.08611561	         -6.05689500	          0.55943190	          0.87912108	          0.11852599	          0.92725020	          0.00689121	         30.61859107	         -1.92625516	         -4.01691849	        -19.87915138	          1.44089869	          0.91709415	         -5.96814196	         -4.23230817	        -12.82083251	        -31.79178356	         -5.51395217	         43.42581513	         -5.02714630	          1.03262068	         -9.67161900	          0.12828645	          0.03059969	          0.01000016	          0.22540784	          0.19534853	          0.10163061	          0.03085739	          0.13083831	          0.02467520	          0.01000005	          0.25801765	          0.01000012	          0.01000003	          0.42113981	          0.28321954	          0.01000008	          0.01000012	          0.02108673	          0.01764806	          0.08472244	          0.11085828	          0.01000001	          0.24856133	          0.01000011	          0.01000000	          0.05832466	          0.11044194	          0.01000005	
          0.09841783	         -6.03554158	          0.42347509	          0.86695073	          0.13375974	          0.93010482	          0.00886119	         29.60508028	         -1.66188426	         -4.04267131	        -19.98971834	          2.31822150	          1.39708050	         -4.03062189	         -5.20096902	        -13.05754963	        -36.27958807	         -8.03445168	         41.14784652	         -4.98111102	          1.46422669	         -9.68406817	          0.10702341	          0.02539316	          0.01000019	          0.22136670	          0.17627425	          0.10100209	          0.02560708	          0.10857623	          0.02047672	          0.01000005	          0.23327004	          0.01000014	          0.01000004	          0.37559775	          0.28605664	          0.01000022	          0.01000013	          0.01749882	          0.01464591	          0.07125660	          0.09704589	          0.01000001	          0.20626862	          0.01000012	          0.01000000	          0.04840073	          0.09165024	          0.07044140	
          0.11072006	         -6.00994445	          0.33357691	          0.85089501	          0.14848440	          0.93347872	          0.01074884	         28.45164244	         -1.43435937	         -4.05488495	        -19.76286808	          2.99104679	          1.86335699	         -1.93941866	         -6.17180749	        -13.25852763	        -40.81004441	        -10.24061597	         37.17975839	         -4.98821779	          1.82358097	         -9.64656355	          0.08881348	          0.02107252	          0.01000017	          0.21253546	          0.15563536	          0.10111388	          0.02125009	          0.09010269	          0.01699261	          0.01000005	          0.20373657	          0.01000013	          0.01000004	          0.34956123	          0.28609716	          0.01000050	          0.01000035	          0.01452140	          0.01215404	          0.05913536	          0.12292083	          0.01000001	          0.17117204	          0.01000013	          0.01000000	          0.04016537	          0.07605594	          0.22506772	
